<?xml version="1.0" encoding="utf-8"?>
<!-- Generator: Adobe Illustrator 17.1.0, SVG Export Plug-In . SVG Version: 6.00 Build 0)  -->
<!DOCTYPE svg PUBLIC "-//W3C//DTD SVG 1.1//EN" "http://www.w3.org/Graphics/SVG/1.1/DTD/svg11.dtd">
<svg version="1.1" id="Layer_1" xmlns="http://www.w3.org/2000/svg" xmlns:xlink="http://www.w3.org/1999/xlink" x="0px" y="0px"
	 viewBox="0 0 65.7 88.3" enable-background="new 0 0 65.7 88.3" xml:space="preserve">
<g>
	<path fill="#F37321" d="M49.1,46.3c-14.3,6.2-33-0.3-33-0.3c-5.7-1-3.2,4.3-3.2,4.3l9.7,18h20.3l9.2-17
		C57.1,42.6,49.1,46.3,49.1,46.3z M40.4,65.4H24.8l-8.2-16.2c0,0,15.3,5.8,32.2,0.8L40.4,65.4z"/>
	<path fill="#E71E25" d="M14.1,42.8c-1.7-1.8,0.8-3.6,3-3.2c0,0,14.3,5.3,28.2,2c0,0,4.8-2.2,0-3c-4.3,0.1-8.5,0.1-12.8,0
		c-4.4-0.1-9,0.3-13.3-0.8c-1.9-0.5-3.5-1.1-3.7-3.3c-0.3-2.3,1.3-4.6,3.8-4.6c0,0,18.5-0.2,20.7-1.3c2.2-1.2,2-2-0.5-2.2
		c-4.4-0.3-9,0.8-13.4,0.5c-1.5-0.1-4.6-0.1-5.5-1.6c-1.5-2.3,1.2-5.4,3.5-5.4c0,0,12.7,0,13.7-1.5c0,0,0.3-1.2-0.8-1.2
		c-3.6,0-7.2,1.1-10.9,0.4c-1.5-0.3-3.1-0.8-3.6-2.4c-0.7-2.5,1.4-4.4,3.6-4.5c0,0,9.2-0.2,9-1.3c0,0,1.3-2-2.3-2
		c-1.9,0-5.1-1.1-5.1-3.4c0-2.9,3.4-4.7,5.3-2.3c0,0,0.3,1.5-1.2,1.8c0,0-1.5,2.2,2.8,2c0,0,6,0.5,3.2,5c0,0-0.8,2.7-9.8,2.7
		c0,0-3.5,1-0.2,1.5c1.8,0.1,3.6,0.1,5.4,0.1c2.5,0,5.8-1.1,7.8,0.9c2.1,2.1,0,4-2,5.1c0,0-7.7,1.7-13.5,1.7c0,0-2.7,1.8,1.7,1.8
		c0,0,9.5,0,13-0.7c0,0,6.8-0.3,5.3,5.2c0,0-2,2.8-5,3.2c0,0-9.2,1-18.3,1.2c0,0-3.8,1.3,1.7,1.7c0,0,18.5,0.7,22.5-0.2
		c0,0,6.3-0.2,5.3,5.3c0,0-0.5,3.8-6.3,5.2c-3.5,0.8-7.4,0.9-11,0.9c-4.5,0-9.1-0.6-13.5-1.3c-1.8-0.3-4.9-0.6-6.3-1.9
		C14.3,42.9,14.2,42.8,14.1,42.8z"/>
	<path fill="none" d="M-13.5,37.2c-1.7,25.9,17.9,48.3,43.8,50c25.9,1.7,48.3-17.9,50-43.8"/>
	<text transform="matrix(0.758 0.6523 -0.6523 0.758 -0.4084 73.2514)"><tspan x="0" y="0" fill="#231F20" font-family="'CoveredByYourGrace'" font-size="20">F</tspan><tspan x="11.3" y="0.1" fill="#231F20" font-family="'CoveredByYourGrace'" font-size="20" rotate="-17.8">R</tspan><tspan x="27.8" y="-6.3" fill="#231F20" font-family="'CoveredByYourGrace'" font-size="20" rotate="-34.1">O</tspan><tspan x="35.5" y="-11.2" fill="#231F20" font-family="'CoveredByYourGrace'" font-size="20" rotate="-50">Z</tspan><tspan x="46" y="-25.1" fill="#231F20" font-family="'CoveredByYourGrace'" font-size="20" rotate="-67.5">E</tspan><tspan x="49.7" y="-34.8" fill="#231F20" font-family="'CoveredByYourGrace'" font-size="20" rotate="-80.3">N</tspan></text>
</g>
</svg>
