<svg xmlns="http://www.w3.org/2000/svg" viewBox="98 72 104 125" enable-background="new 98 72 104 125"><path fill="#F37321" d="M171.8 136.5c-19.4 8.4-44.8-.4-44.8-.4-7.7-1.4-4.3 5.8-4.3 5.8l13.2 24.4h27.6l12.5-23.1c6.7-11.8-4.2-6.7-4.2-6.7zm-11.8 25.9h-21.2l-11.1-22s20.8 7.9 43.7 1.1l-11.4 20.9z"/><path fill="#E71E25" d="M124.3 131.7c-2.3-2.4 1.1-4.9 4.1-4.3 0 0 19.4 7.2 38.3 2.7 0 0 6.5-3 0-4.1-5.8.1-11.5.1-17.4 0-6-.1-12.2.4-18.1-1.1-2.6-.7-4.8-1.5-5-4.5-.4-3.1 1.8-6.2 5.2-6.2 0 0 25.1-.3 28.1-1.8 3-1.6 2.7-2.7-.7-3l-18.2.7c-2-.1-6.2-.1-7.5-2.2-2-3.1 1.6-7.3 4.8-7.3 0 0 17.2 0 18.6-2 0 0 .4-1.6-1.1-1.6-4.9 0-9.8 1.5-14.8.5-2-.4-4.2-1.1-4.9-3.3-1-3.4 1.9-6 4.9-6.1 0 0 12.5-.3 12.2-1.8 0 0 1.8-2.7-3.1-2.7-2.6 0-6.9-1.5-6.9-4.6 0-3.9 4.6-6.4 7.2-3.1 0 0 .4 2-1.6 2.4 0 0-2 3 3.8 2.7 0 0 8.1.7 4.3 6.8 0 0-1.1 3.7-13.3 3.7 0 0-4.8 1.4-.3 2 2.4.1 4.9.1 7.3.1 3.4 0 7.9-1.5 10.6 1.2 2.9 2.9 0 5.4-2.7 6.9 0 0-10.5 2.3-18.3 2.3 0 0-3.7 2.4 2.3 2.4 0 0 12.9 0 17.7-1 0 0 9.2-.4 7.2 7.1 0 0-2.7 3.8-6.8 4.3 0 0-12.5 1.4-24.8 1.6 0 0-5.2 1.8 2.3 2.3 0 0 25.1 1 30.6-.3 0 0 8.6-.3 7.2 7.2 0 0-.7 5.2-8.6 7.1-4.8 1.1-10 1.2-14.9 1.2-6.1 0-12.4-.8-18.3-1.8-2.4-.4-6.7-.8-8.6-2.6-.6.3-.7.2-.8.2z"/><text transform="translate(106.433 195.005)" font-family="'AnnieUseYourTelescope'" font-size="25">FROZEN</text></svg>