<?xml version="1.0" encoding="utf-8"?>
<!-- Generator: Adobe Illustrator 17.1.0, SVG Export Plug-In . SVG Version: 6.00 Build 0)  -->
<!DOCTYPE svg PUBLIC "-//W3C//DTD SVG 1.1//EN" "http://www.w3.org/Graphics/SVG/1.1/DTD/svg11.dtd">
<svg version="1.1" id="Layer_1" xmlns="http://www.w3.org/2000/svg" xmlns:xlink="http://www.w3.org/1999/xlink" x="0px" y="0px"
	 viewBox="98 72 104 125" enable-background="new 98 72 104 125" xml:space="preserve">
<g>
	<path fill="#F37321" d="M171.8,136.5c-19.4,8.4-44.8-0.4-44.8-0.4c-7.7-1.4-4.3,5.8-4.3,5.8l13.2,24.4h27.6l12.5-23.1
		C182.7,131.4,171.8,136.5,171.8,136.5z M160,162.4h-21.2l-11.1-22c0,0,20.8,7.9,43.7,1.1L160,162.4z"/>
	<path fill="#E71E25" d="M124.3,131.7c-2.3-2.4,1.1-4.9,4.1-4.3c0,0,19.4,7.2,38.3,2.7c0,0,6.5-3,0-4.1c-5.8,0.1-11.5,0.1-17.4,0
		c-6-0.1-12.2,0.4-18.1-1.1c-2.6-0.7-4.8-1.5-5-4.5c-0.4-3.1,1.8-6.2,5.2-6.2c0,0,25.1-0.3,28.1-1.8c3-1.6,2.7-2.7-0.7-3
		c-6-0.4-12.2,1.1-18.2,0.7c-2-0.1-6.2-0.1-7.5-2.2c-2-3.1,1.6-7.3,4.8-7.3c0,0,17.2,0,18.6-2c0,0,0.4-1.6-1.1-1.6
		c-4.9,0-9.8,1.5-14.8,0.5c-2-0.4-4.2-1.1-4.9-3.3c-1-3.4,1.9-6,4.9-6.1c0,0,12.5-0.3,12.2-1.8c0,0,1.8-2.7-3.1-2.7
		c-2.6,0-6.9-1.5-6.9-4.6c0-3.9,4.6-6.4,7.2-3.1c0,0,0.4,2-1.6,2.4c0,0-2,3,3.8,2.7c0,0,8.1,0.7,4.3,6.8c0,0-1.1,3.7-13.3,3.7
		c0,0-4.8,1.4-0.3,2c2.4,0.1,4.9,0.1,7.3,0.1c3.4,0,7.9-1.5,10.6,1.2c2.9,2.9,0,5.4-2.7,6.9c0,0-10.5,2.3-18.3,2.3
		c0,0-3.7,2.4,2.3,2.4c0,0,12.9,0,17.7-1c0,0,9.2-0.4,7.2,7.1c0,0-2.7,3.8-6.8,4.3c0,0-12.5,1.4-24.8,1.6c0,0-5.2,1.8,2.3,2.3
		c0,0,25.1,1,30.6-0.3c0,0,8.6-0.3,7.2,7.2c0,0-0.7,5.2-8.6,7.1c-4.8,1.1-10,1.2-14.9,1.2c-6.1,0-12.4-0.8-18.3-1.8
		c-2.4-0.4-6.7-0.8-8.6-2.6C124.5,131.8,124.4,131.7,124.3,131.7z"/>
</g>
<text transform="matrix(1 0 0 1 106.4331 195.0048)" font-family="'AnnieUseYourTelescope'" font-size="25">FROZEN</text>
</svg>
